<svg xmlns="http://www.w3.org/2000/svg" width="1200" height="760" viewBox="0 0 1200 760" role="img" aria-label="WebGL 2 Systems Architect Skill Architecture">
  <defs>
    <style>
      .bg{fill:#0b1020}
      .panel{fill:#121a31;stroke:#5b78c7;stroke-width:2;rx:16}
      .panel2{fill:#16203d;stroke:#7aa2f7;stroke-width:2;rx:16}
      .title{fill:#eef3ff;font:700 28px Arial, sans-serif}
      .subtitle{fill:#d8e2ff;font:600 20px Arial, sans-serif}
      .txt{fill:#d8e2ff;font:400 18px Arial, sans-serif}
      .small{fill:#b8c7f5;font:400 16px Arial, sans-serif}
      .arrow{stroke:#8fb2ff;stroke-width:3;fill:none;marker-end:url(#m)}
    </style>
    <marker id="m" markerWidth="12" markerHeight="12" refX="10" refY="6" orient="auto">
      <path d="M0,0 L12,6 L0,12 z" fill="#8fb2ff"/>
    </marker>
  </defs>
  <rect class="bg" x="0" y="0" width="1200" height="760"/>
  <text class="title" x="60" y="58">WebGL 2 Systems Architect Skill</text>
  <text class="small" x="60" y="86">Progressive disclosure • lane-based orchestration • schema-backed output</text>

  <rect class="panel2" x="440" y="120" width="320" height="110" rx="18"/>
  <text class="subtitle" x="520" y="160">SKILL.md</text>
  <text class="txt" x="502" y="192">Tiny router</text>
  <text class="small" x="468" y="216">Loads only the orchestrator</text>

  <rect class="panel" x="380" y="280" width="440" height="120" rx="18"/>
  <text class="subtitle" x="468" y="322">references/00-orchestrator.md</text>
  <text class="txt" x="452" y="354">Triage • module selection • lane join</text>
  <text class="small" x="444" y="380">Parallel when real, serial when necessary</text>

  <path class="arrow" d="M600 230 L600 280"/>

  <rect class="panel" x="70" y="470" width="210" height="150" rx="18"/>
  <text class="subtitle" x="116" y="510">Hardware lane</text>
  <text class="small" x="103" y="540">02-hardware-budget</text>
  <text class="small" x="103" y="568">caps, DPR, timing, tiers</text>

  <rect class="panel" x="300" y="470" width="210" height="150" rx="18"/>
  <text class="subtitle" x="350" y="510">Subject lane</text>
  <text class="small" x="348" y="540">04-subject-audit</text>
  <text class="small" x="334" y="568">P0/P1/P2 feature checklist</text>

  <rect class="panel" x="530" y="470" width="210" height="150" rx="18"/>
  <text class="subtitle" x="576" y="510">Pipeline lane</text>
  <text class="small" x="555" y="540">03-pipeline-and-concurrency</text>
  <text class="small" x="568" y="568">serial vs async tasks</text>

  <rect class="panel" x="760" y="470" width="210" height="150" rx="18"/>
  <text class="subtitle" x="818" y="510">Code lane</text>
  <text class="small" x="798" y="540">05-shader-rules</text>
  <text class="small" x="788" y="568">06-runtime-ops</text>

  <rect class="panel" x="990" y="470" width="150" height="150" rx="18"/>
  <text class="subtitle" x="1010" y="510">Validation</text>
  <text class="small" x="1010" y="540">07-validation</text>
  <text class="small" x="1008" y="568">CI + confidence</text>

  <path class="arrow" d="M600 400 L175 470"/>
  <path class="arrow" d="M600 400 L405 470"/>
  <path class="arrow" d="M600 400 L635 470"/>
  <path class="arrow" d="M600 400 L865 470"/>
  <path class="arrow" d="M600 400 L1065 470"/>

  <rect class="panel2" x="360" y="650" width="480" height="72" rx="18"/>
  <text class="subtitle" x="416" y="690">Schemas + examples + validator + wrappers</text>
</svg>
